<svg width="64" height="64" viewBox="0 0 64 64" fill="none" xmlns="http://www.w3.org/2000/svg">
  <defs>
    <linearGradient id="instagram-gradient" x1="0%" y1="0%" x2="100%" y2="100%">
      <stop offset="0%" style="stop-color:#833ab4"/>
      <stop offset="50%" style="stop-color:#fd1d1d"/>
      <stop offset="100%" style="stop-color:#fcb045"/>
    </linearGradient>
  </defs>
  <rect width="64" height="64" rx="12" fill="url(#instagram-gradient)"/>
  <path d="M32 18.6c4.3 0 4.8.02 6.5.07 4.36.2 6.42 2.24 6.62 6.62.05 1.7.07 2.2.07 6.5s-.02 4.8-.07 6.5c-.2 4.33-2.24 6.42-6.62 6.62-1.7.05-2.2.07-6.5.07s-4.8-.02-6.5-.07c-4.38-.2-6.42-2.29-6.62-6.62-.05-1.7-.07-2.2-.07-6.5s.02-4.8.07-6.5c.2-4.38 2.24-6.42 6.62-6.62 1.7-.05 2.2-.07 6.5-.07zm0-2.9c-4.37 0-4.92.02-6.64.1-5.85.27-9.1 3.49-9.37 9.37-.08 1.72-.1 2.27-.1 6.64s.02 4.92.1 6.64c.27 5.85 3.49 9.1 9.37 9.37 1.72.08 2.27.1 6.64.1s4.92-.02 6.64-.1c5.85-.27 9.1-3.52 9.37-9.37.08-1.72.1-2.27.1-6.64s-.02-4.92-.1-6.64c-.27-5.88-3.52-9.1-9.37-9.37-1.72-.08-2.27-.1-6.64-.1z" fill="white"/>
  <path d="M32 23.54c-4.68 0-8.46 3.78-8.46 8.46s3.78 8.46 8.46 8.46 8.46-3.78 8.46-8.46-3.78-8.46-8.46-8.46zm0 13.93c-3.03 0-5.47-2.44-5.47-5.47s2.44-5.47 5.47-5.47 5.47 2.44 5.47 5.47-2.44 5.47-5.47 5.47z" fill="white"/>
  <circle cx="41.04" cy="22.96" r="1.98" fill="white"/>
</svg> 