<svg width="64" height="64" viewBox="0 0 64 64" fill="none" xmlns="http://www.w3.org/2000/svg">
  <rect width="64" height="64" rx="12" fill="#0A66C2"/>
  <path d="M20.447 51.452h-7.108V26h7.108v25.452zM16.893 22.933c-2.288 0-4.127-1.853-4.127-4.133 0-2.279 1.84-4.133 4.127-4.133 2.287 0 4.127 1.854 4.127 4.133 0 2.28-1.84 4.133-4.127 4.133zM51.555 51.452h-7.107V39.01c0-2.657-.053-6.074-3.704-6.074-3.705 0-4.273 2.891-4.273 5.878v12.638h-7.108V26h6.827v3.123h.093c.955-1.8 3.274-3.701 6.74-3.701 7.202 0 8.532 4.74 8.532 10.91v15.12z" fill="white"/>
</svg> 